<?xml version="1.0" standalone="no"?>
<!DOCTYPE svg PUBLIC "-//W3C//DTD SVG 20010904//EN"
 "http://www.w3.org/TR/2001/REC-SVG-20010904/DTD/svg10.dtd">
<svg version="1.0" xmlns="http://www.w3.org/2000/svg"
 width="500.000000pt" height="500.000000pt" viewBox="0 0 500.000000 500.000000"
 preserveAspectRatio="xMidYMid meet">
<metadata>
Created by potrace 1.14, written by Peter Selinger 2001-2017
</metadata>
<g transform="translate(0.000000,500.000000) scale(0.100000,-0.100000)"
fill="#000000" stroke="none">
<path d="M2438 4521 c-37 -64 -45 -70 -114 -77 -32 -3 -84 -10 -114 -15 -30
-5 -72 -12 -93 -15 -20 -3 -50 -9 -65 -13 -18 -5 -35 -3 -50 7 -27 18 -47 11
-125 -45 -62 -45 -98 -64 -192 -98 -69 -25 -191 -91 -272 -146 -31 -22 -53
-29 -88 -29 -57 0 -118 -30 -142 -70 -9 -16 -20 -31 -23 -31 -3 -1 -16 -3 -30
-4 -14 -1 -38 -18 -55 -38 -17 -20 -43 -38 -57 -41 -39 -7 -64 -23 -88 -56
-12 -16 -28 -30 -36 -30 -8 0 -28 -14 -43 -31 -23 -24 -37 -31 -74 -33 -26 -1
-50 -6 -54 -10 -15 -14 19 -23 77 -19 32 2 61 0 64 -5 3 -5 -13 -30 -34 -56
-22 -26 -52 -70 -66 -97 -27 -48 -27 -49 -67 -42 -42 6 -44 1 -9 -39 18 -21
14 -38 -32 -148 -34 -81 -37 -85 -67 -86 -35 0 -58 -30 -59 -77 0 -15 -9 -35
-20 -44 -11 -10 -20 -26 -20 -35 0 -29 41 -84 71 -95 23 -9 27 -15 22 -34 -9
-32 -23 -44 -52 -44 -19 0 -26 -8 -36 -41 -7 -23 -11 -57 -10 -75 2 -19 3 -44
4 -56 0 -12 18 -43 38 -70 41 -54 47 -106 15 -133 -48 -41 -52 -127 -7 -165
21 -17 25 -31 30 -105 3 -47 10 -111 16 -144 9 -49 8 -61 -5 -75 -13 -15 -50
-113 -43 -116 62 -22 72 -33 89 -97 9 -36 40 -116 68 -178 28 -63 48 -120 46
-127 -3 -8 -2 -12 3 -9 5 3 11 -3 14 -14 3 -11 1 -23 -5 -26 -6 -4 -5 -10 3
-15 11 -7 9 -9 -5 -9 -16 0 -14 -5 14 -30 18 -16 40 -30 47 -30 7 0 14 -4 14
-10 1 -5 3 -14 4 -20 1 -5 4 -12 5 -15 1 -3 3 -11 4 -17 0 -7 20 -22 44 -33
46 -23 79 -60 62 -70 -5 -3 -10 -1 -10 5 0 6 -4 9 -9 5 -5 -3 -12 -1 -16 5 -7
12 -54 2 -71 -14 -16 -17 -30 -85 -30 -146 1 -51 3 -55 23 -53 43 5 115 46
134 77 21 34 22 83 2 90 -7 3 -13 11 -13 17 0 7 11 2 25 -11 13 -12 22 -26 20
-31 -3 -4 4 -10 15 -14 11 -4 18 -10 15 -14 -2 -4 7 -14 20 -21 14 -7 35 -34
48 -59 43 -86 80 -132 146 -181 51 -38 195 -120 221 -125 3 0 20 -9 38 -18 51
-28 394 -162 440 -172 9 -2 53 -14 97 -25 51 -13 126 -23 205 -26 96 -4 135
-10 167 -25 93 -44 215 -38 325 15 32 15 70 29 85 32 16 2 44 6 63 9 19 3 74
15 122 27 l87 22 23 -29 c13 -16 25 -31 28 -35 11 -14 97 -67 130 -81 59 -24
155 -17 230 16 63 28 143 75 127 75 -5 0 -16 -4 -26 -10 -10 -5 -45 -12 -77
-15 -101 -11 -181 33 -203 110 -7 25 -4 33 13 47 11 10 27 18 34 18 20 0 131
58 202 106 63 42 129 102 237 216 34 35 67 59 91 66 81 24 159 125 177 228 4
22 20 59 35 84 53 86 121 220 141 277 22 64 94 337 103 393 3 19 9 46 12 60 4
14 8 95 10 180 3 155 -13 294 -47 425 -18 70 -18 71 21 97 27 18 36 32 38 58
9 86 -80 131 -148 74 -34 -29 -37 -29 -41 1 -4 35 12 54 60 70 64 21 94 84 55
116 -9 7 -20 24 -25 37 -7 19 -13 22 -32 16 -35 -12 -96 -13 -103 -2 -4 5 12
27 35 49 34 33 41 46 41 77 0 58 -19 114 -41 119 -27 7 -24 30 6 37 58 15 88
87 56 136 -10 15 -16 47 -17 80 -1 89 -33 123 -142 151 -54 13 -73 32 -86 82
-15 63 -101 119 -179 117 -69 -1 -160 8 -190 19 -15 6 -47 12 -71 15 -30 3
-62 16 -102 43 -142 96 -362 192 -568 248 -99 26 -105 28 -246 51 -52 8 -101
20 -108 27 -7 6 -25 32 -38 59 -13 26 -28 48 -32 48 -4 0 -19 -22 -34 -49z"/>
<path d="M670 1514 c0 -14 4 -23 10 -19 6 4 10 -6 11 -22 2 -53 4 -58 21 -61
22 -4 28 28 9 52 -9 11 -11 16 -4 13 8 -5 11 0 10 12 0 11 -5 17 -11 14 -5 -4
-7 1 -3 11 5 14 3 17 -8 12 -8 -3 -15 -1 -15 4 0 6 -4 10 -10 10 -5 0 -10 -12
-10 -26z"/>
</g>
</svg>
